<?xml version="1.0" encoding="utf-8"?>
<!-- Generator: Adobe Illustrator 26.0.1, SVG Export Plug-In . SVG Version: 6.00 Build 0)  -->
<svg version="1.1" id="Layer_1" xmlns="http://www.w3.org/2000/svg" xmlns:xlink="http://www.w3.org/1999/xlink" x="0px" y="0px"
	 viewBox="0 0 181.5 172.1" style="enable-background:new 0 0 181.5 172.1;" xml:space="preserve">
<style type="text/css">
	.st0{fill:none;stroke:#1A0D1E;stroke-width:0.4279;stroke-linecap:round;stroke-miterlimit:10;}
	.st1{fill:#0DBA4B;}
	.st2{fill:#FFFFFF;}
	.st3{opacity:0.5;fill:#0DBA4B;}
	.st4{fill:#FFD42E;}
	.st5{fill:none;stroke:#000000;stroke-width:0.1944;stroke-miterlimit:10;}
	.st6{fill:#FFFFFF;stroke:#000000;stroke-width:0.1944;stroke-miterlimit:10;}
	.st7{clip-path:url(#SVGID_00000036973702115479841100000001627175705612779955_);}
	.st8{fill:none;stroke:#021735;stroke-width:1.1665;stroke-miterlimit:10;}
	.st9{fill:#FFFFFF;stroke:#1C1C1B;stroke-width:0.1944;stroke-miterlimit:10;}
	.st10{fill:#FF5E58;stroke:#000000;stroke-width:0.1944;stroke-miterlimit:10;}
	.st11{fill:#1C1C1B;}
	.st12{fill:#6696EC;stroke:#000000;stroke-width:0.1944;stroke-miterlimit:10;}
	.st13{clip-path:url(#SVGID_00000081632748814937477300000017682306524847134641_);fill:#1C1C1B;}
	.st14{fill:none;stroke:#081132;stroke-width:0.1944;stroke-miterlimit:10;}
	.st15{fill:none;stroke:#000000;stroke-width:1.1665;stroke-miterlimit:10;}
	.st16{fill:#DC8B77;}
	.st17{fill:#021735;}
	.st18{clip-path:url(#SVGID_00000163048728671053584740000006656707345042514617_);fill:#1C1C1B;}
	.st19{fill:none;stroke:#1C1C1B;stroke-width:0.1944;stroke-miterlimit:10;}
	.st20{fill:#F0A700;stroke:#000000;stroke-width:0.1944;stroke-miterlimit:10;}
	.st21{clip-path:url(#SVGID_00000066483746865759573720000003903714390933590963_);fill:#1C1C1B;}
	.st22{fill:none;stroke:#1A0400;stroke-width:0.1944;stroke-miterlimit:10;}
	.st23{fill:#100909;}
	.st24{fill:none;stroke:#FFFFFF;stroke-width:0.1944;stroke-miterlimit:10;}
	
		.st25{clip-path:url(#SVGID_00000109725229338726657090000014183808547428162463_);fill:none;stroke:#000000;stroke-width:0.1944;stroke-miterlimit:10;}
	.st26{fill:#021735;stroke:#191919;stroke-width:0.1944;stroke-miterlimit:10;}
	.st27{clip-path:url(#SVGID_00000057832178968860921440000007817642860023084441_);fill:#FFFFFF;}
	.st28{clip-path:url(#SVGID_00000067936564661823551230000008932678234128192130_);fill:#100909;}
	.st29{clip-path:url(#SVGID_00000014591932402985955490000001584302417028537481_);fill:#100909;}
	.st30{fill:none;stroke:#33414A;stroke-width:0.2083;stroke-miterlimit:10;}
	.st31{fill:none;stroke:#000000;stroke-width:0.25;stroke-linecap:round;stroke-miterlimit:10;}
</style>
<circle class="st0" cx="187.6" cy="26.9" r="2.4"/>
<g>
	<path class="st1" d="M46.3,156.3c-0.2-0.9-0.3-1.8-0.4-2.7c-0.1-3,0.7-6.3-0.8-9c-1.5-2.6-4.6-3.7-7.6-4.1
		c-9.2-1.3-19.6,1.3-26.9-4.4c-8.6-6.6-8.5-18.1-6-27.6c1.2-4.7,3-9.6,5.3-13.9c2.6-4.9,7.8-7,10.7-11.6c2.4-3.8,2.1-8.8,0.5-13
		c-1.6-4.2-4.2-8-6.3-12c-2.5-4.7-4.2-10-4.1-15.3c0.2-7.3,3.5-14.2,10.5-17c6.1-2.5,13.5-0.8,19.2-4.6c3.8-2.5,5.8-6.8,8.9-10.1
		c5-5.4,13.2-7.7,20.3-5.8c5.5,1.5,10.1,5.2,14.8,8.4c4.7,3.2,10.2,6,15.8,5.4c4.8-0.5,8.9-3.4,13.1-5.5C130.9,4.8,158.8,8.2,166,29
		c2.8,8,1.7,17.1-2.4,24.5c-1.6,2.8-3.5,5.5-4.7,8.5c-1.2,3-1.5,6.6,0.3,9.4c1.5,2.3,4.1,3.5,6.3,5.2c4.8,3.7,5.2,12,3.1,17.2
		c-1.6,4-4.8,7.4-5.5,11.7c-1,6,3.1,11.4,4.8,17.2c4.9,16.6-10.1,30-23.8,36.4c-8.2,3.8-18.2,4.7-26,0.1c-3.7-2.2-6.6-5.4-10.2-7.7
		c-5-3.2-11.5-4.4-16.8-1.8c-5.8,2.8-8.8,9.2-13.5,13.6c-5.1,4.8-12.5,7.1-19.2,5.3C52.6,166.9,47.7,162,46.3,156.3z"/>
	<path class="st2" d="M110.4,101.9c-0.3,1.2-0.7,2.4-1.3,3.2c-2.6,3.8-9.3,8.5-14,6.5c-2.5-1-4-4.4-2.5-6.5c1.1-1.6,3.2-2.1,4.8-3.2
		c2.8-1.9,4-5.9,7.2-7C109.8,93.1,111.2,97.8,110.4,101.9z"/>
	<path class="st3" d="M25.1,96.6c0,0.3,0,0.6-0.1,0.8c-0.2,0.8-0.8,1.4-1.4,2c-2.3,2.3-10.8,11.9-12.7,4.3c-1-4.1,4.6-9.7,8.3-10.4
		c1.4-0.3,2.9-0.2,4.1,0.5C24.3,94.4,25,95.5,25.1,96.6z"/>
	<path class="st2" d="M125.1,139.6c-1.1,0.7-2.4,1.3-3.5,2c-1.3,0.9-3.4,2.9-5.1,2.5c-1.3-0.3-2.3-2.1-2.2-3.3
		c0.1-1.3,0.9-2.4,1.8-3.2c0.9-0.9,2.1-1.5,3.1-2.2c0.8-0.6,1.6-1.2,2.5-1.7c1-0.5,2.1-0.7,3.2-0.7c0.9,0,1.8,0.3,2.4,0.9
		c0.7,0.8,0.7,2,0.3,2.9c-0.4,1-1.2,1.7-2,2.3C125.5,139.3,125.3,139.5,125.1,139.6z"/>
	<path class="st4" d="M59.9,47c-0.1,0.1-0.2,0.2-0.3,0.3c-1,1.1-2.1,2.2-3.6,2.8c-1.4,0.5-3.2,0.4-4.1-0.8c-0.3-0.4-0.5-0.8-0.6-1.3
		c-0.4-2.1,0.9-4.1,2.5-5.5c2.1-1.9,4.6-3.1,6.9-5c1.4-1.1,2.9-2.1,4.7-2.2c1.7-0.1,3.7,0.9,4.1,2.6c0.3,1.2-0.2,2.6-1.1,3.5
		c-0.9,1-2,1.6-3.1,2.2C63.3,44.6,61.5,45.5,59.9,47z"/>
	<path d="M126.7,15.8c-0.7-0.7-0.7-1.9,0-2.6c0.7-0.7,1.9-0.7,2.6,0"/>
	<path class="st5" d="M163.2,53.6c0,1-0.8,1.8-1.8,1.8c-1,0-1.8-0.8-1.8-1.8c0-1,0.8-1.8,1.8-1.8C162.4,51.8,163.2,52.6,163.2,53.6z
		"/>
	<ellipse transform="matrix(0.5439 -0.8391 0.8391 0.5439 -28.8505 112.0158)" class="st5" cx="88.6" cy="82.5" rx="3.6" ry="3.6"/>
	<path d="M81.4,83.9c0.7-0.3,1.4,0,1.7,0.6c0.3,0.7,0,1.4-0.6,1.7c-0.7,0.3-1.4,0-1.7-0.6C80.5,84.9,80.7,84.2,81.4,83.9z"/>
	<path d="M26.5,43.8c0.7-0.3,1.4,0,1.7,0.6c0.3,0.7,0,1.4-0.6,1.7c-0.7,0.3-1.4,0-1.7-0.6C25.5,44.9,25.8,44.1,26.5,43.8z"/>
	<g>
		<line class="st5" x1="132.4" y1="11.8" x2="122.5" y2="21.6"/>
		<line class="st5" x1="136.3" y1="10.1" x2="126.4" y2="20"/>
	</g>
	<line class="st5" x1="170.8" y1="50.3" x2="161.4" y2="59.7"/>
	<line class="st5" x1="100.8" y1="106.1" x2="91.4" y2="115.5"/>
	<polyline class="st5" points="30.5,51.9 32.3,48.4 34.8,51.9 36.8,48.4 38.7,51.9 40.8,48.4 43,51.9 44.8,48.4 	"/>
	<g>
		<g>
			<polygon class="st6" points="65,53.4 82.8,50 75.4,63.5 70.1,57.7 68.7,60.3 67.8,55.6 			"/>
			<g>
				<defs>
					<polygon id="SVGID_1_" points="65,53.4 82.8,50 76.2,63.4 70.1,57.7 68.7,60.2 67.8,55.6 					"/>
				</defs>
				<clipPath id="SVGID_00000177450663912500596900000002810398864377444227_">
					<use xlink:href="#SVGID_1_"  style="overflow:visible;"/>
				</clipPath>
				<polygon style="clip-path:url(#SVGID_00000177450663912500596900000002810398864377444227_);" points="80.1,51.9 70.1,57.7 
					69.4,62.5 66.4,60.5 67.8,55.6 				"/>
			</g>
		</g>
		<path class="st8" d="M73.2,164.5l6.7-49c0-0.2,0.2-0.2,0.3,0l7.3,49"/>
		<polyline class="st8" points="36.9,164.2 44.9,131.7 56.1,164.4 		"/>
		<path class="st9" d="M66.5,110.6c-0.1-2.2,0-4.4,0.7-6.4c0.4-1.2,1-2.8,2.1-3.5c1.2-0.7,3-0.4,4.1,0.3c1.4,1,2.2,2.8,2.3,4.5
			c0.3,4.7-1.7,9.6-2.8,14c-0.2,0.9-0.5,2-1.3,2.6c-1,0.8-2.6,0.5-3.7-0.1c-0.3-0.1-0.6-0.3-0.8-0.6c-0.3-0.4-0.3-1-0.2-1.5
			c0.1-1.1,0.1-2.2,0.1-3.3C66.8,114.7,66.6,112.7,66.5,110.6z"/>
		<path class="st10" d="M70.5,117.4c-1.1-0.2-2.3-0.5-3.4-0.9c-0.1,0-0.2-0.1-0.3-0.1c0,0.1,0,0.2,0,0.3c0,1.1,0,2.2-0.1,3.3
			c0,0.5-0.1,1.1,0.2,1.5c0.2,0.3,0.5,0.4,0.8,0.6c1.2,0.6,2.7,0.9,3.7,0.1c0.8-0.6,1.1-1.6,1.3-2.6c0.2-0.6,0.3-1.2,0.5-1.8
			C72.4,117.7,71.4,117.5,70.5,117.4z"/>
		<path class="st9" d="M71.3,140.2c1.6-0.4,1.5-0.7,3-1.2c0,7.1,1.9,19.3,1.9,21.4c-2,0.1-3,1.9-5.1,1.8c-1.6-2.5-2.9-9.1-3.8-11.8
			c-0.2-0.6,0.9-6.1-0.1-9.7C69.2,140.4,69.3,140.7,71.3,140.2z"/>
		<path class="st10" d="M73.6,154.5c-1.6,0.3-3.3,0.6-4.9,0.8c0.7,2.7,1.6,5.5,2.5,7c2,0.1,3.1-1.7,5.1-1.8c0-0.8-0.3-3.2-0.6-6.2
			C74.9,154.3,74.2,154.4,73.6,154.5z"/>
		<path class="st10" d="M33.9,133.1c1.3,0.5,2.6,0.9,3.9,1.2c2.6,0.2,5.2,0.3,7.8,0.3c4,0,8.1-0.2,12.1-0.9c2-0.4,3.9-0.9,5.8-1.7
			c1.6-0.7,3.3-1.6,4.4-2.9c0.9-1.1,1.7-2.9,1.8-4.5c-1.5-4.9-6-5.6-10-7.9c-4.3-2.4-8-6-10.6-10.2c-2.4-3.9-3.8-8.3-5.7-12.5
			c-1.8-3.9-4.1-5.9-8.2-7.3c-3-1.1-6.4-1.8-9.4-0.8c-4.2,1.4-6.7,5.9-7.5,10.3c-1.1,6.8-0.4,15.1,1.8,21.7
			C22.4,124.2,27.6,130.9,33.9,133.1z"/>
		<path class="st11" d="M44.7,127.1c1.3,0.1,2.7,0.2,4,0.4c1.2,0.1,2.4,0.3,3.4,1c0.2,0.1,0.4,0.3,0.4,0.6c0,0.2-0.2,0.4-0.5,0.5
			c-1.8,1-4.4,2.1-6.5,1.8c-1.9-0.2-4-0.1-5.8-0.7c-0.9-0.3-1.8-0.8-2.3-1.6c-0.4-0.6-0.7-2,0.1-2.3c0.6-0.2,2.3,0.2,3,0.2
			C42,127,43.4,127,44.7,127.1z"/>
		<path class="st12" d="M76,110.1c-0.5,2.1-1,4.5-1.6,6.6c-2.8-0.6-5.6-1.3-8.5-1.9c-1.4-0.3-1.5,2-2.1,2.9
			c-0.6,0.9-1.4,1.6-2.2,2.2c-1.7,1.4-4.2,1.8-6.4,1.8c-2.5,0-5.2-1.2-6.3-3.5c-0.9-1.8-0.6-4-0.1-6c2-7.3,7.4-13.1,13.1-18
			c2.8-2.4,6.4-4.2,10.2-2.9c6.1,2.1,5.9,9.1,4.8,14.4C76.6,107.1,76.3,108.6,76,110.1z"/>
		<g>
			<defs>
				<path id="SVGID_00000065755612424576847540000010829953449654437509_" d="M76,110.1c-0.5,2.1-1,4.5-1.6,6.6
					c-2.8-0.6-5.6-1.3-8.5-1.9c-1.4-0.3-1.5,2-2.1,2.9c-0.6,0.9-1.4,1.6-2.2,2.2c-1.7,1.4-4.2,1.8-6.4,1.8c-2.5,0-5.2-1.2-6.3-3.5
					c-0.9-1.8-0.6-4-0.1-6c2-7.3,7.4-13.1,13.1-18c2.8-2.4,6.4-4.2,10.2-2.9c6.1,2.1,5.9,9.1,4.8,14.4
					C76.6,107.1,76.3,108.6,76,110.1z"/>
			</defs>
			<clipPath id="SVGID_00000102543637448740704380000003625362622364501933_">
				<use xlink:href="#SVGID_00000065755612424576847540000010829953449654437509_"  style="overflow:visible;"/>
			</clipPath>
			<path style="clip-path:url(#SVGID_00000102543637448740704380000003625362622364501933_);fill:#1C1C1B;" d="M73.7,95.5
				c1.1,0,2.2-0.8,2.8-1.7c0.2-0.3,0.3-0.6,0.4-0.9c0.1-0.6-0.2-1.1-0.5-1.6c-1-1.6-3.7-3.5-5-1.2C70.3,92,70.9,95.5,73.7,95.5z"/>
		</g>
		<path class="st11" d="M67.5,125.3c2.3,0.5,4.7,0.8,7,1.1c1.2,0.2,3.8,0.9,4.9,0c1.5-1.1-0.9-1.7-2-2.3c-1.9-1.1-3.8-2.1-5.7-3.1
			c-1.8-0.9-4-3-5.8-1c-1.1,1.3-1.3,3.3-1.4,4.9C65.5,124.9,66.5,125.1,67.5,125.3z"/>
		<path class="st12" d="M29.8,116.9c0.5-2.3,2.9-2.3,5.9-2c3.2,0.3,6.4-0.1,9.7-0.3c5.7-0.3,11.4,0,17.2,0.3
			c2.2,0.1,4.5,0.3,6.5,1.4c2,1.1,3.3,3.1,4.1,5.2c0.8,2.1,1,4.4,1.3,6.6c0.7,5.9,1.4,11.8,2.1,17.7c0.2,1.5,0.4,3,0.5,4.5
			c0.2,1.7,0.1,1.7-1.6,1.9c-2.9,0.4-5.7,0.8-8.6,1.2c-1.3-5-2.5-10-3.1-15.2c-0.1-0.7-1.5-9.2-1.8-9.2c-5.1,0.8-10.3,1-15.5,0.6
			c-3.6-0.3-7.4-0.9-10.5-2.7c-2.8-1.6-5.7-4.5-6.1-7.8C29.7,118.3,29.7,117.5,29.8,116.9z"/>
		<path class="st11" d="M71.6,164.5c0,0,0.1,0,0.1,0h1.7c3.7-0.2,7.3,0,11-0.3c0.5,0,1.1-0.1,1.5-0.4c0.9-0.7,0.1-1.8-0.7-2.2
			c-3-1.2-7-1-9-4c-2,1.1-4,2.1-6.1,2.8c0.3-0.1,0.4,1.8,0.4,2C70.6,163.2,70.9,164.2,71.6,164.5z"/>
		<path class="st4" d="M37.6,78.6c-1.3,0.2-2.6,0.5-3.7,1.1c-1.6,0.8-3,1.9-4.2,3.3c-1.9,2.2-2.7,5.2-3.4,8
			c-0.8,3.6-1.7,7.2-2.5,10.8c-0.2,0.8-0.4,1.7-0.4,2.6c0,1.4,0.4,3.2,0.7,4.5c0.2,0.6,0.4,1,0.7,1.3c1.5,1,2.7,2.3,3.2,4
			c0.2,0.6,0.4,1.1,0.6,1.7c0.2,0.6,0.3,1.1,0.5,1.4c0.9,0,1.9,0,2.8,0c3.2,0,6,0.1,9.1-0.8c3.1-0.9,6.4-0.8,9.5-1.6
			c0.2-0.1,0.5-0.2,0.6-0.4c0.1-0.3,0.1-1.1,0.1-1.5c0.1-0.8,0.1-1.6,0.1-2.4c0-1.5,0-3.1,0-4.6c0-3-0.1-6,0-9
			c0.2-2.1,0.3-4.3,0.3-6.4c3.1-0.1,6.3-0.8,9.5-1.1c2.7-0.3,5.4-0.5,7.3-2.8c0.2-0.2,0.4-0.5,0.6-0.8c1.3-2.7-0.6-5.6-3.4-6.1
			c-0.6-0.1-1.1-0.1-1.7-0.1c-4.5,0-9-0.2-13.5-0.3c-2.5-0.1-4.3,0-6.7-0.5C41.5,78.1,39.6,78.6,37.6,78.6z"/>
		<path class="st9" d="M62.6,81.3c0.1-1.8,0.7-3.7,1-5.3c0.6-2.5,1.3-4.9,1.7-7.4c0.4-2.2,0.7-4.4,0.6-6.7c-0.1-1.7,0.4-3.5,1.6-4.8
			c0.2-0.2,0.4-0.4,0.6-0.5c0.3-0.1,0.6-0.1,0.9-0.1c0.8,0,1.4,0.1,2.2,0.4c-0.3,0.2-0.5,0.3-0.8,0.5c-0.2,0.2-0.3,0.2-0.1,0.4
			c0.2,0.2,0.5,0.4,0.6,0.7c0.3,0.4,0,1.3-0.2,1.7c-0.2,0.6-0.5,1.2-0.9,1.7c-0.1,0.2-0.3,0.4-0.3,0.6c0,0.1,0,0.3,0,0.4
			c0,1.9,0.1,3.8,0.4,5.7c0.3,2,0.5,4,0.6,6c0,0.3,0,0.7,0,1c0.1,3.4,0.1,6.8-1.7,9.8c-0.3,0.4-0.6,0.9-1,1.2
			c-2.2,1.9-4.7-1.1-5.1-3.2C62.6,82.9,62.5,82.1,62.6,81.3z"/>
		<path class="st14" d="M37.4,89.1c-0.5,0.6-1,1.2-1.3,2c-0.2,0.4-0.2,0.9-0.3,1.3c-0.8,4.5-1.5,9-2.7,13.4"/>
		<path class="st14" d="M67.4,97.5c-1.1,4.6-3.5,11.6-3.6,16.4"/>
		<path class="st15" d="M19.3,113c7.8-1.8,16.5-3.2,23.5,0.1c4.5,2.1,7.6,6.1,8.5,10.4c0.9,4.2,0.1,6.3-2.5,10"/>
		<path class="st10" d="M23.1,126.7c1.2,3.3,4,5.7,7.4,6.5c0,0,0,0,0.1,0c5,1.2,10.1,1.4,15.2,1.4c2.5,0,5.1-0.1,7.6-0.3
			c-0.5-0.2-1.1-0.5-1.6-0.7c-4.7-2.3-9.3-4.9-13.3-8.3c-3.7-3.2-7.1-6.8-9.7-10.9c-1.3-2-2.3-4.1-3.3-6.2c-1-2-1.9-4-2.8-6.1
			c-1.2-2.9-2.5-6.1-2.8-9.3c-0.5,1.1-0.8,2.3-1,3.5c-1.1,6.8-0.4,15.1,1.8,21.7C21.3,120.6,22,123.8,23.1,126.7z"/>
		<path class="st14" d="M63.9,115.4c-5-0.8-8.2-0.1-14.6-0.1"/>
		<path class="st9" d="M52.5,112.7c-1.6-0.8-3.4-1.5-5.1-2c-0.8-0.2-1.6-0.4-2.4-0.7c-0.9-0.4-1.7-0.9-2.5-1.4c-1.6-1-3.2-2-4.9-3
			c-1.3-0.8-2.6-1.6-4-2.3c-0.7-0.4-1.4-0.7-2.2-0.9c-2-0.7-5.6-1.6-7.3,0.1c-0.4,0.4-0.6,0.7-0.8,1.2c0.9,1.9,1.8,3.8,2.8,5.7
			c0.6,0.3,1.2,0.5,1.8,0.7c2.5,0.8,5.2,1.2,7.8,1.5c2.6,0.3,5.3,0.5,7.6,1.9c2.5,1.5,6,1.5,8.9,0.9c0.5-0.1,1.1-0.4,1.1-0.9
			C53.2,113.1,52.8,112.9,52.5,112.7z"/>
		<path class="st16" d="M68.2,106.6C68.2,106.6,68.2,106.6,68.2,106.6"/>
		<g>
			<path class="st8" d="M12.5,164.5l7-49c0-0.2,0.3-0.2,0.3,0l7.6,49"/>
			<rect x="15.2" y="114" class="st17" width="69.3" height="2.1"/>
			<line class="st14" x1="85.1" y1="114" x2="14.7" y2="114"/>
			<line class="st14" x1="18.7" y1="116.1" x2="21.3" y2="116.1"/>
			<line class="st14" x1="78.8" y1="116.1" x2="81.3" y2="116.1"/>
		</g>
		<g>
			<path d="M82.1,112.7H50.5c-0.3,0-0.6,0.2-0.6,0.5v0.4c0,0.3,0.3,0.5,0.6,0.5h31.6V112.7z"/>
			<path class="st9" d="M82,113.7H54.4l2.4-15.9c0.1-0.6,0.6-1,1.1-1h25.4c0.7,0,1.2,0.6,1.1,1.3L82,113.7z"/>
			<g>
				<line class="st14" x1="71.8" y1="104.8" x2="73" y2="105.8"/>
				<line class="st14" x1="70.3" y1="104.8" x2="71.5" y2="105.8"/>
				<line class="st14" x1="68.7" y1="104.8" x2="69.9" y2="105.8"/>
			</g>
		</g>
		<path class="st9" d="M48,65.7c-0.5-1.1-1.6,0.2-2.9,0c-1.1-0.2-1.9-0.3-3,0.1c-0.9,0.4-1.8,1-2.2,1.9c-0.1,0.2-0.2,0.5-0.3,0.7
			c-0.2,0.8-0.3,1.5-0.4,2.3c-0.1,0.6,0,1.3,0,1.9c0,0.3,0.1,0.5,0.1,0.8c0,1.3,0.1,2.5-0.5,3.8c-0.2,0.6-0.6,1.1-1,1.6
			c-0.2,0.2-0.4,0.4-0.7,0.6c0.1,0.1,0.1,0.1,0.2,0.2c1.2,1.6,3.7,1.8,5.6,1.6c0.9-0.1,2-0.3,2.9-0.7c-0.7-1.1-0.4-2.3-0.1-3.7
			c0-0.1,0.2-0.6,0.3-1c0.5-0.3,1-0.7,1.3-1.2c0.5-0.8,0.8-1.7,0.9-2.6C48.6,70.6,48.6,67,48,65.7z"/>
		<path d="M40,72.6c0.1-0.6,0.1-1.2,0.4-1.7c0.3-0.6,0.9-0.7,1.2-1.2c0.6-1.1,0.6-2.3,1.9-2.9c1.4-0.6,3,0.3,4.4-0.3
			c0.9-0.3,1.5-1.2,1.5-2.2c0-0.5-0.2-1-0.4-1.4c-0.2-0.5-0.5-1.1-1-1.4c-0.7-0.5-1.5-0.5-2.4-0.3c-0.8,0.1-1.6,0.4-2.4,0.4
			c-1,0-2.1-0.4-3.1-0.2c-1,0.2-1.8,0.9-2.1,1.8c-0.3,0.9-0.3,1.7-0.8,2.5c-0.6,0.8-1.1,1.5-1.1,2.5c0,0.8,0.6,1.6,0.9,2.4
			c0.3,0.7,0.4,1.4,0.7,2.1c0.3,0.7,0.9,1.3,1.6,1.3c0.1,0,0.2,0,0.3-0.1c0.2-0.1,0.2-0.4,0.2-0.6C39.9,73.1,40,72.9,40,72.6z"/>
		<g>
			<defs>
				<path id="SVGID_00000145026587027283525060000007775665037500384648_" d="M50.5,83.2c0-0.1,0-0.1,0-0.2
					c-0.6-1.1-2.3-0.8-3.4-1.1c-0.2-0.1-0.4-0.2-0.6-0.3c0,0,0,0-0.1,0c-0.4-0.3-0.6-0.7-0.8-1.1c-0.7-1.9,0-3.8,0.5-5.7
					c0,0-0.1-0.1-0.1-0.1c-0.3-0.2-0.6-0.1-0.9,0c-1.1,0.2-2.3,0.1-3.3-0.4c-0.5-0.2-1-0.5-1.4-0.8c-0.3-0.2-0.8-0.9-1.1-0.8
					c0,0-0.1,0-0.1,0c-0.1,1.6,0.2,3.1-0.5,4.6c-0.2,0.6-0.6,1.1-1,1.6c-0.2,0.3-0.5,0.5-0.9,0.7c-0.1,0-0.2,0.1-0.3,0.1
					c0,0-0.1,0-0.1,0c-0.1,0-0.1,0-0.1,0c-0.7,0.1-1.5,0.1-1.9,0.6c-0.2,0.2-0.3,0.6-0.4,0.9c-0.5,2.3,0.7,5,2.2,6.8
					c1.2,1.3,3,2.4,4.7,2.5c1.7,0.1,3.3-0.6,4.7-1.4c0.6-0.4,1.2-0.7,1.8-1.1c1.7-1.2,3.1-2.4,3.1-4.6
					C50.5,83.2,50.5,83.2,50.5,83.2z"/>
			</defs>
			<clipPath id="SVGID_00000023982024376255042420000012710743612985817775_">
				<use xlink:href="#SVGID_00000145026587027283525060000007775665037500384648_"  style="overflow:visible;"/>
			</clipPath>
			<path style="clip-path:url(#SVGID_00000023982024376255042420000012710743612985817775_);fill:#1C1C1B;" d="M43.3,75.7
				c0,0,0.1,0,0.2,0c1,0.2,2.1,0.2,3.1-0.1c0.3,0.1,0.2,0.3,0.2,0.7c-0.1,0.6-0.1,1.1-0.2,1.7C45.5,77.2,44.3,76.4,43.3,75.7
				C43.3,75.7,43.3,75.7,43.3,75.7z"/>
		</g>
		<path class="st19" d="M44.2,72.8c0.2,0.5,0.7,0.8,1.2,0.8c0.5,0,0.9-0.3,1.2-0.7L44.2,72.8z"/>
		<path class="st9" d="M41.8,70.9c-0.2-1.1-1.4-2.1-2.6-1.6c-1.1,0.5-1.5,2.3-0.7,3.2c0.4,0.5,1.1,0.7,1.7,0.5"/>
		<path class="st19" d="M39.7,70.4c0.4,0,0.7,0.1,1,0.4c0.2,0.3,0.3,0.7,0.2,1"/>
		<path class="st2" d="M68.5,60.7c0.3,0.1,0.9,0,1.1-0.1c0.3-0.1,0.6-0.3,0.8-0.6c0.4-0.5,0.3-1.1,0-1.7c-0.5,0.5-1,1-1.6,1.4
			c-0.2,0.1-0.3,0.2-0.4,0.4C68.3,60.4,68.4,60.6,68.5,60.7z"/>
		<path d="M68.8,59.7c-0.1,0-0.1,0-0.2,0c-0.1-0.4-0.2-0.8-0.3-1.3c-0.1-0.4-0.2-0.7-0.2-1.1c-0.1-0.3-0.1-0.7-0.2-1
			c0-0.2-0.2-0.7,0-0.8c0.1,0,0.1-0.1,0.2-0.1c0.5-0.1,1-0.2,1.5-0.1c0.5,0,1,0.2,1.4,0.5c0.2,0.2,0.4,0.5,0.4,0.8
			c0,0.3-0.3,0.6-0.6,0.7c-0.2,0.1-0.4,0.3-0.6,0.4c-0.1,0,0.2,0.3,0.2,0.4c0,0.2-0.4,0.5-0.5,0.6C69.6,59,69.3,59.5,68.8,59.7z"/>
		<path class="st19" d="M70.4,58.1c-0.4,0.7-1.2,1.4-1.9,1.8"/>
		<path class="st20" d="M51.5,90.6c0.1-0.7,0.2-1.5,0.3-2.2"/>
		<path d="M46.3,79c-0.3-0.1-0.7-0.2-1-0.3c0,0.8-0.3,1.5-1.1,1.9c-0.8,0.4-1.7,0.5-2.5,0.4c-1.5-0.2-3.5-1.1-4.2-2.5
			c-0.5,0.2-1,0.3-1.4,0.4c0.4,0.8,0.9,1.5,1.6,2c0.4,0.3,0.9,0.6,1.3,0.8c1,0.5,2,0.7,3.1,0.8c1.1,0,2.3-0.1,3.2-0.8
			c0.8-0.6,1.3-1.7,1.3-2.7C46.5,79,46.4,79,46.3,79z"/>
		<g>
			<defs>
				<path id="SVGID_00000086691810055590991920000017418481884138825613_" d="M29.8,116.9c0.5-2.3,2.9-2.3,5.9-2
					c3.2,0.3,6.4-0.1,9.7-0.3c5.7-0.3,11.4,0,17.2,0.3c2.2,0.1,4.5,0.3,6.5,1.4c2,1.1,3.3,3.1,4.1,5.2c0.8,2.1,1,4.4,1.3,6.6
					c0.7,5.9,1.4,11.8,2.1,17.7c0.2,1.5,0.4,3,0.5,4.5c0.2,1.7,0.1,1.7-1.6,1.9c-2.9,0.4-5.7,0.8-8.6,1.2c-1.3-5-2.5-10-3.1-15.2
					c-0.1-0.7-1.5-9.2-1.8-9.2c-5.1,0.8-10.3,1-15.5,0.6c-3.6-0.3-7.4-0.9-10.5-2.7c-2.8-1.6-5.7-4.5-6.1-7.8
					C29.7,118.3,29.7,117.5,29.8,116.9z"/>
			</defs>
			<clipPath id="SVGID_00000106850195370230621990000012125575158342858417_">
				<use xlink:href="#SVGID_00000086691810055590991920000017418481884138825613_"  style="overflow:visible;"/>
			</clipPath>
			<path style="clip-path:url(#SVGID_00000106850195370230621990000012125575158342858417_);fill:#1C1C1B;" d="M68,118.7
				c0.2,1.1,0.9,2.1,1.9,2.4c2.7,0.8,4.7-2.5,2.9-4.5C71.2,114.8,67.5,116.1,68,118.7z"/>
		</g>
		<path class="st11" d="M62.1,129.3c-0.3-1.4-0.5-2.7-0.6-4.1c-0.3,1.5-0.6,2.9-0.9,4.4C61.1,129.5,61.6,129.4,62.1,129.3z"/>
	</g>
	<path d="M64.1,72.4C64.1,72.4,64.1,72.4,64.1,72.4"/>
	<g>
		<g>
			<g>
				<g>
					<g>
						<path class="st4" d="M169.5,90c0-0.2-0.1-0.4-0.1-0.6c-0.3-1-1.2-1.8-2.2-2c-1-0.3-2.1-0.1-3.1,0.3c-1.3,0.6-2.3,1.6-3.4,2.4
							c-1.9,1.3-3.9,2.1-5.2,4c-1.4,2.1-2.5,4.3-2.9,6.8c0,0.2-0.1,0.4-0.1,0.5c0.1-0.7,1.2-1.7,1.6-2.1c0.6-0.6,1.3-1.2,2.1-1.7
							c1.7-1,3.5-1.5,5.3-1.7c3.4-0.3,6-0.6,7.6-3.9C169.4,91.5,169.6,90.8,169.5,90z"/>
					</g>
					<path class="st5" d="M161.8,92.6c-3,1.3-6,3-7.9,5.7c-2,3-2.8,6.3-3.1,9.9c-0.3,2.7-0.5,5.5-0.8,8.2"/>
				</g>
				<g>
					<path class="st4" d="M156.6,74.1c-1.3-0.8-3.1-0.8-4.6-0.1c-1.9,0.9-3.1,2.9-3.8,4.9c-0.6,2-0.7,4.2-0.9,6.3
						c-0.3,4.2-1,8.4-0.6,12.5c0.2,1.9,0.7,3.8,1,5.7c0.1,0.7,0.4,3.5,1.3,3.5c0.3,0,0.5-0.2,0.6-0.4c0.1-0.1,0.2-0.1,0.3-0.1
						c0.1,0.1,0.3,0,0.5,0c0.2-0.1,0.4-0.4,0.5-0.7c1.7-3.7,3.1-7.5,4.2-11.5c0.5-1.7,1-3.5,1.1-5.3c0.1-1.8,0.3-3.7,0.8-5.5
						c0.4-1.4,1-2.8,1.3-4.2c0.3-1.4,0.2-3-0.6-4.2C157.5,74.7,157.1,74.4,156.6,74.1z"/>
					<line class="st22" x1="152.1" y1="85.5" x2="148.8" y2="115.9"/>
				</g>
				<g>
					<path class="st4" d="M145.3,98c-1.1-3.2-3.6-5.8-6.8-6c-1.1-0.1-2.3,0-3.4-0.2c-1.1-0.2-2.2-0.6-3.3-0.4
						c-2.4,0.5-3.4,3.7-2,5.6c0.7,1,2,1.5,3.2,1.7c1.2,0.2,2.5,0.1,3.7,0.2c1.6,0.1,3.1,0.3,4.5,1c2.3,1.2,3.6,4.1,4.4,6.4
						c0.3,0.7,0.5,1.2,0.5,2.4c-0.2-0.6,0.1-1.8,0.1-2.5c0-0.9,0-1.8-0.1-2.7c-0.1-1.7-0.3-3.4-0.7-5
						C145.4,98.4,145.3,98.2,145.3,98z"/>
				</g>
				<path class="st22" d="M146.4,114.7c-0.2-2.1-0.3-8.7-0.8-10.7c-0.5-1.9-1.1-3.8-2.3-5.3c-1.1-1.5-2.9-2.6-4.6-2.5"/>
			</g>
			<path class="st23" d="M142.7,110.8h12.5l-0.7,5.6c-0.4,3-2.7,5.3-5.5,5.3l0,0c-2.7,0-5.1-2.2-5.5-5.2L142.7,110.8z"/>
		</g>
		<g>
			<g>
				<polyline class="st19" points="129.9,164.7 129.9,121.7 164,121.7 164,164.7 				"/>
				<line class="st19" x1="127.6" y1="132.9" x2="166.8" y2="132.9"/>
				<line class="st19" x1="127.6" y1="144" x2="166.8" y2="144"/>
				<line class="st19" x1="127.6" y1="155.1" x2="166.8" y2="155.1"/>
			</g>
		</g>
		<path class="st19" d="M148.6,126.1c0,0.9-0.8,1.7-1.7,1.7c-0.9,0-1.7-0.8-1.7-1.7c0-0.9,0.8-1.7,1.7-1.7
			C147.8,124.4,148.6,125.1,148.6,126.1z"/>
		<path class="st19" d="M148.6,137.5c0,0.9-0.8,1.7-1.7,1.7c-0.9,0-1.7-0.8-1.7-1.7s0.8-1.7,1.7-1.7
			C147.8,135.8,148.6,136.6,148.6,137.5z"/>
		<path class="st19" d="M148.6,149c0,0.9-0.8,1.7-1.7,1.7c-0.9,0-1.7-0.8-1.7-1.7s0.8-1.7,1.7-1.7
			C147.8,147.3,148.6,148.1,148.6,149z"/>
		<path class="st19" d="M148.6,160.5c0,0.9-0.8,1.7-1.7,1.7c-0.9,0-1.7-0.8-1.7-1.7s0.8-1.7,1.7-1.7
			C147.8,158.8,148.6,159.6,148.6,160.5z"/>
		<path class="st23" d="M148.6,126.1c0,0.9-0.8,1.7-1.7,1.7c-0.9,0-1.7-0.8-1.7-1.7"/>
		<path class="st23" d="M148.6,137.5c0,0.9-0.8,1.7-1.7,1.7c-0.9,0-1.7-0.8-1.7-1.7"/>
		<path class="st23" d="M148.6,149c0,0.9-0.8,1.7-1.7,1.7c-0.9,0-1.7-0.8-1.7-1.7"/>
		<path class="st23" d="M148.6,160.5c0,0.9-0.8,1.7-1.7,1.7c-0.9,0-1.7-0.8-1.7-1.7"/>
	</g>
	<g>
		<path class="st1" d="M49.7,15.6c9.8,0,17.8,3.7,17.8,8.2c0,2.7-2.6,4.5-4.8,5.6c-1.6,0.8-3.4,1.4-5.2,1.8
			c-2.4,0.5-4.9,0.9-7.5,0.9c-0.2,2.6-1.3,5.2-3,7.2c-0.7,0.8-1.5,1.5-2.5,1.6c1.6-2.6,2.4-5.8,2.2-8.9c-3.2-0.2-6.4-1-9.3-2.2
			c-2.4-1.1-5.5-3-5.5-6C31.9,19.3,39.9,15.6,49.7,15.6z"/>
		<path class="st24" d="M62,23.2c-0.2,1.5-1.5,2.7-2.9,2.7c-1.4,0-2.7-1.3-2.8-2.7c0-0.6,0.1-1.2,0.6-1.4c0.5-0.2,1.1,0.1,1.3,0.7
			c0.2,0.5,0.1,1.1-0.1,1.6c-0.6,1.6-2.3,2.6-3.9,2.4c-1.6-0.2-3-1.5-3.3-3.2c-0.1-0.6,0-1.3,0.4-1.6c0.6-0.4,1.4,0.1,1.6,0.8
			c0.2,0.7-0.1,1.4-0.5,2c-0.9,1.2-2.3,1.8-3.7,1.7c-0.6,0-1.5-0.2-2-0.6c-0.8-0.6-1.5-2.4-0.9-3.3c0.1-0.2,0.3-0.3,0.5-0.3
			c0.1,0,0.3,0.1,0.4,0.2c0.3,0.2,0.4,0.6,0.4,1c0,0.8-0.4,1.7-0.9,2.2c-0.9,1.1-2.5,1.4-3.8,0.8c-1.3-0.6-2.2-1.9-2.3-3.3
			c0-0.5,0.2-1.3,0.7-1.2c0.4,0,0.6,0.5,0.7,0.8c0.2,1.1-0.1,2.4-0.9,3.2c-0.8,0.8-2,1.2-3,0.9"/>
	</g>
	<g>
		<g>
			<g>
				<rect x="147.8" y="17.6" class="st2" width="16" height="24.9"/>
				<path d="M156.7,44.1c0,0.6-0.4,1-1,1c-0.5,0-1-0.5-1-1c0-0.6,0.4-1,1-1C156.3,43,156.7,43.5,156.7,44.1z"/>
			</g>
		</g>
		<g>
			<g>
				<path class="st5" d="M155.4,22.3c-3.8,0.6-6.3,4.1-5.8,7.9"/>
				<path class="st5" d="M155.7,24.3c-2.6,0.4-4.5,2.9-4,5.5"/>
				<path class="st5" d="M155.9,25.8c-1.8,0.3-3,2-2.7,3.8"/>
				<path class="st5" d="M156.2,27.6c-0.8,0.1-1.4,0.9-1.3,1.8"/>
			</g>
			<path class="st1" d="M154.7,36.2c0.6-0.4,1.1-0.8,1.6-1.3c0.6-0.5,1.2-1.1,1.8-1.7c0.5-0.5,1-1.1,1.4-1.6c0,0,0,0,0,0
				c0.5-0.6,1-1.3,1.4-2c0.4-0.6,0.7-1.2,1-1.8c0.1-0.3,0.2-0.5,0-0.8c-0.3-0.8-1.3-1.3-2.1-1.5c-0.2-0.1-0.4,0-0.5,0.2
				c-0.3,0.7-0.7,1.4-1.1,2.1c-0.1,0.3-0.3,0.5-0.4,0.8c-0.1,0.2,0,0.3,0.1,0.5c0.4,0.3,0.8,0.6,1.3,0.8c0.2,0.1,0.2,0.2,0.2,0.4
				c-0.2,0.2-0.3,0.5-0.5,0.7c-0.1,0.1-0.1,0.2-0.2,0.3c0,0-0.1,0.1-0.1,0.1c-0.1,0.1-0.2,0.3-0.3,0.4c0,0,0,0-0.1,0.1
				c-0.1,0.1-0.2,0.3-0.4,0.4c0,0,0,0,0,0.1c-0.3,0.4-0.7,0.7-1.1,1.1c-0.1,0.1-0.3,0-0.4-0.1c-0.2-0.4-0.6-0.8-1-1.1
				c-0.1-0.1-0.3-0.1-0.5,0c-0.2,0.2-0.5,0.4-0.7,0.5c-0.6,0.5-1.3,1-1.9,1.4c-0.2,0.1-0.2,0.3-0.1,0.5c0.4,0.8,1,1.6,1.8,1.8
				C154.2,36.4,154.4,36.4,154.7,36.2z"/>
		</g>
	</g>
	<g>
		<g>
			<circle class="st4" cx="17" cy="67.1" r="9.3"/>
			<ellipse class="st5" cx="17" cy="67.1" rx="7" ry="9.3"/>
			<ellipse class="st5" cx="17" cy="67.1" rx="2.6" ry="9.3"/>
		</g>
		<g>
			<defs>
				<circle id="SVGID_00000068663832990035828630000007619865951500161668_" cx="17" cy="67.1" r="9.3"/>
			</defs>
			<clipPath id="SVGID_00000099627496325777667460000017807767047845742724_">
				<use xlink:href="#SVGID_00000068663832990035828630000007619865951500161668_"  style="overflow:visible;"/>
			</clipPath>
			
				<ellipse style="clip-path:url(#SVGID_00000099627496325777667460000017807767047845742724_);fill:none;stroke:#000000;stroke-width:0.1944;stroke-miterlimit:10;" cx="17" cy="77.7" rx="9.3" ry="6.5"/>
			
				<ellipse style="clip-path:url(#SVGID_00000099627496325777667460000017807767047845742724_);fill:none;stroke:#000000;stroke-width:0.1944;stroke-miterlimit:10;" cx="17" cy="56.7" rx="9.3" ry="6.5"/>
			
				<line style="clip-path:url(#SVGID_00000099627496325777667460000017807767047845742724_);fill:none;stroke:#000000;stroke-width:0.1944;stroke-miterlimit:10;" x1="6.3" y1="67.6" x2="27.2" y2="67.6"/>
		</g>
	</g>
	<path class="st9" d="M125.8,37.7c-0.3,0-0.6,0.2-0.7,0.4c-0.2,0.2-0.3,0.5-0.2,0.8"/>
	<g>
		<path class="st9" d="M133.1,74.2c-0.1,0-0.3-0.1-0.4-0.2c-0.4-0.2-0.6-0.5-1.1-0.5c-0.3,0-0.6,0.2-0.5,0.5c0,0.1,0.1,0.2,0.2,0.3
			c0.3,0.4,0.8,0.6,1.2,0.9c0.2,0.2,0.3,0.4,0.5,0.6c0.9,0.8,2.2,0.1,2.9-0.5c0.1-0.1,0.2-0.2,0.2-0.3c0-0.1,0-0.2-0.1-0.2
			c-0.2-0.3-0.5-0.4-0.9-0.5c-0.3-0.1-0.7-0.1-1-0.1C133.8,74.4,133.4,74.3,133.1,74.2z"/>
		<path class="st9" d="M96.8,37.4c-0.1-2-0.2-4.1-0.2-6.2c0.1-2,1.1-3.9,1.4-5.9c0-0.2,0.1-0.4,0-0.6c-0.1-0.2-0.4-0.3-0.5-0.2
			c-0.3,0.6-0.6,1.4-1.3,1.6c-0.4-1.5,1.2-3.3,0.2-4.5c-0.8-1-2.5-0.6-3.1,0.3c-0.7,0.9-0.7,2.2-0.8,3.3c-0.2,3.8-1,8.1-2,12.1H96.8
			z"/>
		<g>
			<g>
				<rect x="82.3" y="10.8" class="st4" width="24.1" height="15.2"/>
				<path class="st5" d="M106.4,10.8c0,0-11.2,6.9-12.1,7.6l-12.1-7.6"/>
			</g>
		</g>
		<path class="st9" d="M96.6,31.3c0-1.1,0.4-2.2,0.7-3.2c0.2-0.5,0.3-1.1,0.5-1.6c0.1-0.2,0.1-0.4,0.2-0.7c0-0.2,0.1-0.5,0.2-0.7
			c0-0.1,0.1-0.1,0.1-0.2c0-0.1,0-0.2,0-0.2c-0.1-0.1-0.2-0.1-0.4-0.1c-0.2,0.1-0.4,0.2-0.5,0.3c-0.4,0.5-0.5,1.2-1.2,1.3"/>
		<g>
			<path class="st9" d="M105.1,159c0,0.2-0.1,0.3-0.2,0.4c-0.1,0.1-0.3,0.2-0.5,0.2c-1.6,0.4-3.2,0.7-4.9,0.9
				c0.5-3.6,0.3-7.3,1.1-10.9c0.3-1.5,0.8-3,2-4c1.2-1,3-1.1,4.3-0.3c2.4,1.4,1,3.8,0.5,5.8C106.6,153.7,105.9,156.4,105.1,159z"/>
			<path class="st23" d="M105.5,158.9c-0.8,0.1-1.6,0.2-2.4,0.1c-1.2,0-2.5-0.2-3.6-0.8c-0.4,0.2-0.8,0.7-1.3,0.9
				c-1.6,0.7-3.1,1.3-4.7,2c-1.2,0.5-2.4,1-3.4,1.8c-0.2,0.2-0.5,0.4-0.6,0.7c-0.3,1.3,2.8,0.9,3.5,0.9c1.7,0,3.4-0.2,5.1-0.2
				c1.4,0,2.9,0,4.3-0.1c0.9,0,2.2,0.3,2.8-0.3c0.5-0.5,0.5-1.6,0.3-2.2C105.5,160.9,105.5,159.9,105.5,158.9z"/>
			<path class="st9" d="M125.6,159.6c0,0.1,0,0.3,0.1,0.4c0.1,0.1,0.3,0.2,0.5,0.2c1.5,0.3,3.1,0.6,4.7,0.8
				c0.3-4.1,0.6-8.6,0.4-12.2c0-0.6-0.3-1.2-0.7-1.6c-0.6-0.7-1.8-1.1-2.9-0.9c-0.9,0.1-2.7,0.8-3.1,1.6c-0.4,0.9,0.1,2.9,0.2,3.9
				C125.1,154.4,125.3,157,125.6,159.6z"/>
			<g id="XMLID_97_">
				<g id="XMLID_606_">
					<path id="XMLID_622_" class="st9" d="M125.1,42.5c0,0.1,0,0.3-0.1,0.4c-0.4,2.2,0.5,4.5,0.1,6.8c-0.3,1.6-1.7,4.8-3.7,5
						c-0.5,0.1-1-0.6-1.3-1c-0.9-1.1-1.7-2.5-1.8-3.9c-0.1-0.7,0-1.4,0-2.1c0.1-1,0.2-2,0.3-3c0-0.5,0.1-0.9,0.2-1.4
						c0.2-0.8,0.6-1.6,1.1-2.3c1.2-1.3,2.9-1.4,4.6-1.5c0.2,0,0.4,0,0.5,0.1c0.3,0.2,0.3,0.6,0.3,1
						C125.2,41.3,125.1,41.9,125.1,42.5z"/>
					<path class="st23" d="M121.2,44.7c1,0.3,3.8,0.7,3.8,0.7c0-0.5-0.1-1.5-0.1-2.1c0-0.1,0.1-0.5,0.1-0.9c0.1-0.3,0.1-0.7,0.1-0.7
						c-0.2-0.1-0.5-0.2-0.7-0.3c-0.1-0.1-0.2-0.2-0.3-0.3c-0.7-0.7-1.8-0.8-2.8-0.5c-0.5,0.2-1,0.6-1.4,1.1
						c-0.2,0.3-0.4,0.6-0.5,0.9c-0.2,0.3-0.4,0.8-0.4,1.1c0,0,0,0.1,0,0.3C119.8,44.3,120.5,44.5,121.2,44.7z"/>
					<g id="XMLID_607_">
						<path id="XMLID_620_" class="st9" d="M118.7,33.8c0.6,0.1,1.2,0.2,1.9,0.3c0.5,0.1,1,0.4,1.6,0.5c0.9,0.2,2.4,0.4,3,1.1
							c0.7,0.8,0.7,1.9,0.6,2.8c-0.1,0.9-0.2,1.9-0.5,2.8c-0.3,1.5-1.2,2.6-2.6,3.3c-1,0.4-2.1,0.6-3.2,0.3
							c-1.6-0.4-2.4-1.7-2.7-3.5c0-0.3-0.1-1.4-0.1-1.7c0-1,0.2-2,0.3-3c0.1-0.9,0.2-1.8,0.6-2.6c0-0.1,0.1-0.2,0.2-0.3
							c0.1-0.1,0.3-0.1,0.5-0.1C118.4,33.8,118.5,33.8,118.7,33.8z"/>
						<path id="XMLID_611_" class="st23" d="M117.8,31.2c0.5-0.2,1.1-0.2,1.6-0.2c1,0.1,2,0.1,2.9,0.2c0.8,0.1,1.6,0.1,2.4,0.4
							c0.9,0.5,1.7,1.3,2.1,2.3c0.2,0.7,0.2,1.5,0.1,2.3c-0.1,0.7-0.2,1.4-0.4,2.1c-0.1,0.7-0.5,1.4-1.2,1.6c-1,0.2-1.3-1-1.2-1.8
							c0-0.4,0-0.8,0.1-1.2c0-0.2,0-0.5,0-0.7c-0.1-0.4-0.5-0.7-0.8-0.8c-0.4-0.1-0.8-0.2-1.2-0.2c-1.3-0.1-2.6-0.1-3.8-0.4
							c-0.4-0.1-0.8-0.2-1.1-0.5c-0.8-0.6-0.6-2.2,0-2.9C117.5,31.4,117.6,31.3,117.8,31.2z"/>
						<path id="XMLID_610_" class="st23" d="M116.6,38.8c0,0.1,0,0.1,0.1,0.2c0.4-0.5,0.4-1.7,0.5-2.4c0.1-0.8,0.4-1.6,1-2.1
							c0.2-0.2,0.4-0.3,0.5-0.5c0.1-0.2,0.2-0.5,0-0.6c-0.2-0.2-0.5-0.2-0.7-0.2c-1.6,0.4-1.5,2.4-1.4,3.8
							C116.5,37.5,116.5,38.2,116.6,38.8z"/>
						<path id="XMLID_3_" class="st9" d="M124.5,40.7c0.4,0.2,0.8,0.2,1.2,0.1c0.9-0.3,1.3-1.5,0.7-2.3c-0.3-0.4-0.7-0.5-1.2-0.5
							c-0.4,0-0.9,0.3-1.1,0.7"/>
					</g>
				</g>
				<path class="st26" d="M134.6,110.8c0.2-6.4,0.3-12.6-0.7-19c-0.4-2.7-2.7-12.2-6.1-12.7c-0.2,0-0.4,0-0.5,0
					c-0.2-1-0.5-1.9-1.1-2.7c-1.5-2.4-4.2-4.2-7-4.8c-3.1-0.7-6.8-0.3-8.2,3.2c-0.7,1.8-0.5,3.7-1.4,5.4c-2.3,5-2.6,9.9-3.3,15.4
					c-0.8,6.5-1.7,12.9-2.6,19.4c-1.7,12.3-3.5,24.5-5.4,36.7c1.3,0.3,2.6,0.5,3.9,0.7c2.3,0.3,4.5,0.2,6.8-0.1
					c2.2-11.1,4.6-22.2,7.1-33.3c1.3-5.5,2.3-10.9,3.6-16.2c0.9,8.6,1.6,17.2,2.2,25.8c0.3,4.4,0.5,8.8,0.6,13.2
					c0.1,3.6,0.8,7.6,0.6,11.2c2.6,0.5,5.7,0,8.4-0.1c0.3,0,2.6-0.3,2.6-0.6c0.7-7.7,0.7-13.9,0.8-22
					C135.1,124.2,134.5,116.7,134.6,110.8z"/>
				<g>
					<defs>
						<path id="SVGID_00000097461890119881074860000014216250507335864978_" d="M134.6,110.8c0.2-6.4,0.3-12.6-0.7-19
							c-0.4-2.7-2.7-12.2-6.1-12.7c-0.2,0-0.4,0-0.5,0c-0.2-1-0.5-1.9-1.1-2.7c-1.5-2.4-4.2-4.2-7-4.8c-3.1-0.7-6.8-0.3-8.2,3.2
							c-0.7,1.8-0.5,3.7-1.4,5.4c-2.3,5-2.6,9.9-3.3,15.4c-0.8,6.5-1.7,12.9-2.6,19.4c-1.7,12.3-3.5,24.5-5.4,36.7
							c1.3,0.3,2.6,0.5,3.9,0.7c2.3,0.3,4.5,0.2,6.8-0.1c2.2-11.1,4.6-22.2,7.1-33.3c1.3-5.5,2.3-10.9,3.6-16.2
							c0.9,8.6,1.6,17.2,2.2,25.8c0.3,4.4,0.5,8.8,0.6,13.2c0.1,3.6,0.8,7.6,0.6,11.2c2.6,0.5,5.7,0,8.4-0.1c0.3,0,2.6-0.3,2.6-0.6
							c0.7-7.7,0.7-13.9,0.8-22C135.1,124.2,134.5,116.7,134.6,110.8z"/>
					</defs>
					<clipPath id="SVGID_00000070839321527676998570000005716482546442462376_">
						<use xlink:href="#SVGID_00000097461890119881074860000014216250507335864978_"  style="overflow:visible;"/>
					</clipPath>
					<path style="clip-path:url(#SVGID_00000070839321527676998570000005716482546442462376_);fill:#FFFFFF;" d="M132.1,148.5
						c0-2.5,0-5,0-7.4c0-5-0.1-9.9-0.1-14.9c-0.1-5-0.2-9.9-0.3-14.9c-0.1-4.8-0.3-9.6-0.5-14.4c-0.3-4.9-0.8-10.1-3.3-14.4
						c-0.1-0.1-0.2,0-0.2,0.1c1.3,4.3,2.1,8.7,2.4,13.1c0.3,4.8,0.4,9.5,0.5,14.3c0.3,9.8,0.4,19.6,0.5,29.3c0,2.7,0,5.5,0,8.2
						c0,1.4,0,2.8,0,4.2c0,1.4-0.1,2.8,0.1,4.1c0.1,0.4,0.7,0.4,0.8,0c0.2-1.2,0.2-2.5,0.2-3.7C132,150.9,132.1,149.7,132.1,148.5z"
						/>
				</g>
				<path class="st9" d="M118.5,41.2c0,0.9,0.7,1.6,1.5,1.6c0.8,0,1.5-0.7,1.6-1.5L118.5,41.2z"/>
				<path class="st2" d="M107.6,75.5c-0.5,3.6-1,7.1-1.5,10.6c0.9,0,1.9,0.5,2.8,0.7c1.1,0.3,2.3,0.5,3.5,0.6
					c2.4,0.4,4.8,0.5,7.3,0.6c1.2,0,14.2-0.4,14.2-0.7c-0.2-1.5-0.5-3.1-0.6-4.6c-0.1-3.5-0.3-6.9-0.4-10.4
					c-0.2-6.1,1.4-12,1.2-18.1c0-0.7-1.9-1.5-1.9-2.2c-0.1-1.6-0.8-2.8-2-3.9c-0.2-0.1-0.3-0.3-0.5-0.3c-0.3-0.1-0.7-0.1-1-0.2
					c-0.8,0-1.8-0.1-2.6-0.1c-0.3,0-0.4-0.1-0.7-0.2c0,1.2-0.5,2.5-1.5,3.2c-1.3,1-3.2,0.4-4.3-0.7c-0.3-0.3-0.5-0.6-0.7-1
					c-0.2-0.4-0.4-0.7-0.4-1.1c-4,1.1-8.8,1.2-12.9,1c-2-0.1-4.7-0.3-6-1.9c-2.7-3.2-1.8-11.6-1.4-15.4c-2.7,0.1-4.9,0-7.6-0.4
					c-0.9,5.6-1.9,13.1-1.3,18.7c0.9,8.6,13.6,10.7,20.3,9.8c0.1,1.3-0.1,2.8-0.2,4.1c-0.2,1.3-0.4,2.7-0.6,4
					C108.3,70.3,107.9,72.9,107.6,75.5z"/>
			</g>
			<path class="st23" d="M124.8,163.7C124.8,163.8,124.8,163.8,124.8,163.7c0,0.2,0.1,0.3,0.2,0.4c0.1,0.1,0.2,0.1,0.3,0.1
				c3.8,0.2,7.5,0.3,11.3,0.4c0.9,0,4.5,0,4.7-1.2c0.1-0.3-0.1-0.6-0.3-0.8c-0.2-0.2-0.5-0.3-0.8-0.4c-1.7-0.7-3.7-1-5.3-1.9
				c-0.6-0.3-1.2-0.7-1.8-1c-0.3-0.2-1.7-1.2-2-1.1c-1.9,0.4-4,0.7-5.9,0.4C124.7,160.3,124.5,162,124.8,163.7z"/>
		</g>
		<path class="st9" d="M133.3,75c-1.6,0.7-3.3,0.6-5,0.8c-0.2,0-0.4,0.1-0.5,0.3c-0.1,0.1-0.1,0.3-0.1,0.5c0,0,0.1,0.3,0.2,0.3
			c-0.2,0.2-0.3,0.4-0.3,0.6c0,0.3,0.2,0.5,0.5,0.5c-0.1,0.1-0.1,0.2,0,0.3c0.1,0.1,0.2,0.2,0.3,0.2c0.3,0.1,0.5,0.2,0.8,0.2
			c-0.4,0-0.1,0.6,0.1,0.7c0.4,0.2,0.9,0.2,1.3,0.3c1,0.1,2,0,2.9-0.2c1.5-0.4,2.9-1.1,4.3-1.5c0.7-0.2,1.4-0.3,2.2-0.4
			c0.6-0.1,1.2,0,1.8-0.3c1.1-0.4,2.2-0.6,3-1.5c0.7-0.8,1-2.2,0.2-3c-0.6-0.6-1.5-0.8-2.3-0.7c-0.1,0-0.1,0-0.2,0
			c-0.9,0.2-1.7,0.7-2.5,1.1c-1.7,0.9-3.8,1.2-5.7,1.2"/>
		<path class="st2" d="M129.9,57.9c2.3,0.3,9.1,1.7,11.8,3.9c1.8,1.4,3,3.7,2.5,5.9c-0.4,1.4-1.5,2.6-2.8,3.4
			c-1.3,0.8-2.8,1.2-4.2,1.5c0.9,2.3,1.4,4.7,1.4,7.1c0,0.2,6.2-1.5,6.7-1.7c2-0.8,3.5-1.8,5.1-3.2c3-2.5,4.4-6.4,3.8-10.3
			c-1.3-7.6-8.7-12.7-15.7-15c-4-1.3-8.3-1.7-12.5-1.9"/>
		<path class="st9" d="M129,78.8c1.3,0.1,2.4,0,4-0.3"/>
		<path class="st9" d="M128.1,78c1.7,0,3.1-0.2,4.6-0.7"/>
		<path class="st9" d="M128,76.9c1.6,0,3.3-0.3,4.9-0.7"/>
		<path class="st14" d="M119.7,102.9c-0.1-4.2-0.2-8.4-0.7-12.9"/>
		<g>
			<defs>
				<path id="SVGID_00000044887396631137660300000003804127218343952829_" d="M130.3,58c2.3,0.1,3.3,0.6,5.4,1.2
					c2.1,0.7,4.2,1.1,6,2.5c1.8,1.4,3,3.7,2.5,5.9c-0.4,1.4-1.5,2.6-2.8,3.4c-1.3,0.8-2.8,1.2-4.2,1.5c0.9,2.3,1.4,4.7,1.4,7.1
					c0,0.2,6.2-1.5,6.7-1.7c2-0.8,3.5-1.8,5.1-3.2c3-2.5,4.4-6.4,3.8-10.3c-1.3-7.6-8.7-12.7-15.7-15c-4-1.3-8.3-1.7-12.5-1.9"/>
			</defs>
			<clipPath id="SVGID_00000082364005658461349590000003711461451871969160_">
				<use xlink:href="#SVGID_00000044887396631137660300000003804127218343952829_"  style="overflow:visible;"/>
			</clipPath>
			<path style="clip-path:url(#SVGID_00000082364005658461349590000003711461451871969160_);fill:#100909;" d="M151.5,67.2
				c0.1,0.9,0.7,1.8,1.6,2c0.9,0.2,1.9-0.2,2.6-0.9c0.4-0.4,0.8-0.8,1-1.4C157.8,63.5,151.2,63,151.5,67.2z"/>
		</g>
		<g>
			<defs>
				<path id="SVGID_00000089557266272916915800000005928288511089627272_" d="M107.6,75.5c-0.5,3.6-1,7.1-1.5,10.6
					c0.9,0,1.9,0.5,2.8,0.7c1.1,0.3,2.3,0.5,3.5,0.6c2.4,0.4,4.8,0.5,7.3,0.6c1.2,0,14.2-0.4,14.2-0.7c-0.2-1.5-0.5-3.1-0.6-4.6
					c-0.1-3.5-0.3-6.9-0.4-10.4c-0.2-6.1-0.5-12.2-0.7-18.3c0-0.7,0-1.3-0.1-2c-0.1-1.6-0.8-2.8-2-3.9c-0.2-0.1-0.3-0.3-0.5-0.3
					c-0.3-0.1-0.7-0.1-1-0.2c-0.8,0-1.8-0.1-2.6-0.1c-0.3,0-0.4-0.1-0.7-0.2c0,1.2-0.5,2.5-1.5,3.2c-1.3,1-3.2,0.4-4.3-0.7
					c-0.3-0.3-0.5-0.6-0.7-1c-0.2-0.4-0.4-0.7-0.4-1.1c-4,1.1-8.8,1.2-12.9,1c-2-0.1-4.1-0.4-5.4-1.9c-2.7-3.2-1.6-11.8-1.2-15.6
					c-2.7,0.1-5.5,0-8.2-0.4c-0.9,5.6-2.1,13.4-1.5,19c0.9,8.6,13.6,10.7,20.3,9.8c-0.1,1.9-0.7,6.7-0.8,8.1
					C108.3,70.3,107.9,72.9,107.6,75.5z"/>
			</defs>
			<clipPath id="SVGID_00000129166098676325119890000006043317651883086229_">
				<use xlink:href="#SVGID_00000089557266272916915800000005928288511089627272_"  style="overflow:visible;"/>
			</clipPath>
			<path style="clip-path:url(#SVGID_00000129166098676325119890000006043317651883086229_);fill:#100909;" d="M91.2,50.2
				c1,0.1,2,1,2.2,2c0.2,1-0.3,2.2-1.3,2.6C91.8,55,91.4,55,91,55.1c-0.8,0.1-1.6-0.1-2.2-0.7C86.9,52.7,89,49.9,91.2,50.2z"/>
		</g>
		<path class="st23" d="M123.4,61.1c0,0.6,0,1.5,0,2.1c0.1,1.8,1.1,3.9,3.3,3.5c0.6-0.1,1.1-0.5,1.4-1c0.3-0.5,0.5-1.1,0.6-1.7
			c0.2-1,0.2-2,0.3-3C128.5,61.2,123.4,61.1,123.4,61.1z"/>
		<path class="st23" d="M119.3,99c-0.2,1.1-0.4,2.3-0.5,3.4c-0.1,1.2-0.2,2.4-0.3,3.6c-0.1,0.5-0.1,1-0.2,1.5c0,0.3,0,0.7,0,1
			c0.3,0,0.5-1.4,0.6-1.7c0.2-0.5,0.2-1.2,0.4-1.7c0.1-0.4,0.3-1.7,0.5-2.1c-0.1-1.6,0-3.7-0.1-5.5C119.5,98,119.4,98.5,119.3,99z"
			/>
		<path class="st10" d="M109.5,60.1c0-0.8,0.1-1.5,0.1-2.3"/>
	</g>
	<line class="st5" x1="5.7" y1="164.4" x2="165.9" y2="164.4"/>
</g>
<path class="st30" d="M162.2,45.5h-12.9c-0.9,0-1.5-0.7-1.5-1.5V15.4c0-0.9,0.7-1.5,1.5-1.5h12.9c0.9,0,1.5,0.7,1.5,1.5V44
	C163.8,44.8,163.1,45.5,162.2,45.5z"/>
<path class="st23" d="M158.2,16.3h-4.9c-0.1,0-0.3-0.1-0.3-0.3l0,0c0-0.1,0.1-0.3,0.3-0.3h4.9c0.1,0,0.3,0.1,0.3,0.3l0,0
	C158.5,16.2,158.4,16.3,158.2,16.3z"/>
<circle class="st17" cx="122.1" cy="38.3" r="0.3"/>
<circle class="st17" cx="44.6" cy="69.7" r="0.3"/>
<circle class="st17" cx="47.5" cy="69.4" r="0.3"/>
<g>
	<path class="st17" d="M43.8,69.1c0.2-0.6,1-0.6,1.5-0.5c0.2,0.2,0.2,0.2-0.1,0.2C44.7,68.6,44.3,69,43.8,69.1L43.8,69.1z"/>
</g>
<g>
	<path class="st17" d="M46.5,68.6c0.2-0.6,1-0.6,1.5-0.5c0.2,0.2,0.2,0.2-0.1,0.2C47.4,68.1,47,68.5,46.5,68.6L46.5,68.6z"/>
</g>
<g>
	<path class="st17" d="M121.5,37.5c0.3-0.5,1.1-0.3,1.6,0c0.1,0.3,0.1,0.3-0.1,0.2C122.5,37.3,122,37.5,121.5,37.5L121.5,37.5z"/>
</g>
<circle class="st17" cx="118.3" cy="38" r="0.3"/>
<g>
	<path class="st17" d="M117.7,37.2c0.3-0.5,1.1-0.3,1.6,0c0.1,0.3,0.1,0.3-0.1,0.2C118.7,37,118.2,37.2,117.7,37.2L117.7,37.2z"/>
</g>
<g>
	<path class="st17" d="M120,37.3c0.2,0.8-0.2,1.8,0,2.6c0.1,0.2,0.4,0.1,0.6,0c-0.2,0.3-0.7,0.5-0.9,0.1c-0.2-0.6,0-1.2,0-1.8
		C119.8,37.9,119.9,37.5,120,37.3L120,37.3z"/>
</g>
<g>
	<path class="st17" d="M46.3,68.5c0.2,0.4,0.2,0.9,0.3,1.3c0,0,0.2,1.3,0.2,1.3l0,0.1c-0.1,0-0.6,0-0.7,0c-0.2,0-0.4-0.1-0.6-0.1
		c0.3-0.1,0.8-0.2,1.2-0.2c0,0-0.1,0.1-0.1,0.1l-0.2-1.3C46.3,69.4,46.2,68.9,46.3,68.5L46.3,68.5z"/>
</g>
<path class="st31" d="M118.3,47.8c0,0,0.3,3.1,4.1,3.3c0,0,3.1-0.5,2.8-3.7"/>
</svg>
